<svg width="34" height="32" viewBox="0 0 34 32" fill="none" xmlns="http://www.w3.org/2000/svg">
<path d="M12.2336 0.275893C12.3534 0.347593 12.4578 0.44218 12.541 0.554251C12.6241 0.666321 12.6844 0.79368 12.7184 0.929052C12.7523 1.06442 12.7592 1.20516 12.7388 1.34321C12.7183 1.48126 12.6709 1.61393 12.5991 1.73364L7.18887 10.75H26.8111L21.3988 1.73364C21.2539 1.49187 21.211 1.20245 21.2796 0.929071C21.3481 0.65569 21.5225 0.420735 21.7642 0.275893C22.006 0.131052 22.2954 0.0881888 22.5688 0.156733C22.8422 0.225278 23.0772 0.399615 23.222 0.641393L29.2889 10.75H32.9375C33.2193 10.75 33.4895 10.862 33.6888 11.0612C33.8881 11.2605 34 11.5307 34 11.8125V13.9375C34 14.2193 33.8881 14.4896 33.6888 14.6888C33.4895 14.8881 33.2193 15 32.9375 15H1.0625C0.780707 15 0.510456 14.8881 0.311199 14.6888C0.111942 14.4896 0 14.2193 0 13.9375V11.8125C0 11.5307 0.111942 11.2605 0.311199 11.0612C0.510456 10.862 0.780707 10.75 1.0625 10.75H4.71112L10.7738 0.641393C10.8455 0.521658 10.94 0.417221 11.0521 0.334049C11.1642 0.250877 11.2915 0.190598 11.4269 0.156656C11.5623 0.122715 11.703 0.115776 11.8411 0.136234C11.9791 0.156693 12.1118 0.20415 12.2315 0.275893H12.2336ZM5.2445 30.7803L2.00388 17.125H31.9961L28.7555 30.7803C28.6716 31.1279 28.4732 31.4372 28.1922 31.6584C27.9112 31.8797 27.564 32 27.2064 32H6.79362C6.43564 32.0005 6.08792 31.8804 5.80651 31.6591C5.5251 31.4378 5.32638 31.1283 5.24237 30.7803H5.2445Z" fill="#99001F"/>
</svg>
